<svg xmlns="http://www.w3.org/2000/svg" width="256" height="256" viewBox="0 0 1024 1024">
  <defs>
    <linearGradient id="ribbon" x1="240" y1="520" x2="784" y2="520" gradientUnits="userSpaceOnUse">
      <stop offset="0" stop-color="#7c5cff"/>
      <stop offset="0.45" stop-color="#5b5ff6"/>
      <stop offset="1" stop-color="#4aa3ff"/>
    </linearGradient>
    <linearGradient id="node" x1="0" y1="0" x2="0" y2="1">
      <stop offset="0" stop-color="#ffffff" stop-opacity="0.96"/>
      <stop offset="1" stop-color="#ffffff" stop-opacity="0.72"/>
    </linearGradient>
  </defs>

  <path
    d="M312 512
       C312 414 378 352 468 352
       C548 352 604 398 672 512
       C740 626 796 672 876 672
       C966 672 1032 610 1032 512
       C1032 414 966 352 876 352
       C796 352 740 398 672 512
       C604 626 548 672 468 672
       C378 672 312 610 312 512"
    fill="none"
    stroke="url(#ribbon)"
    stroke-width="150"
    stroke-linecap="round"
    stroke-linejoin="round"
    pathLength="1"
  />

  <rect x="486" y="486" width="52" height="52" rx="16" fill="url(#node)" />

  <g>
    <rect x="652" y="432" width="74" height="74" rx="22" fill="#a3ff4a" />
    <path
      d="M670 470l16 16 34-38"
      fill="none"
      stroke="#0b1220"
      stroke-width="16"
      stroke-linecap="round"
      stroke-linejoin="round"
    />
  </g>
</svg>
